<?xml version="1.0" encoding="UTF-8"?>
<svg id="Layer_1" data-name="Layer 1" xmlns="http://www.w3.org/2000/svg" width="579" height="579" viewBox="0 0 579 579">
  <defs>
    <style>
      .cls-1 {
        fill: #fff;
      }

      .cls-2 {
        fill: #446721;
      }
    </style>
  </defs>
  <circle class="cls-2" cx="289.5" cy="289.5" r="289.5"/>
  <path class="cls-1" d="m96.27,479.44c3.26-9.14,6.31-18.02,9.58-26.77,4.8-12.84,9.15-25.98,14.81-38.27,8-17.39,18.27-22.63,34.42-17.14,11.97,4.07,23.51,9.99,35.07,15.6,18.96,9.19,37.95,18.31,58.45,21.31,14.67,2.15,29.46,3.13,42.96-6.3,10.13-7.07,12.43-21.06,5.34-32.12-1.81-2.83-3.98-5.8-6.55-7.4-10.59-6.59-21.17-13.36-32.19-18.82-19.63-9.72-39.9-17.67-59.28-28-19.01-10.13-35.4-24.8-47.55-45.65-19.15-32.86-15.42-76.55,1.34-106.16,10.89-19.24,25.85-32.5,43.51-41.97,31.97-17.16,73.78-21.98,107.07-20.93-4.79,3.15-9.34,5.89-13.68,9.05-18.85,13.72-31.22,33.46-37.79,58.39-1.01,3.82-2.64,5.32-5.96,6.71-6.61,2.77-13.35,6.15-18.95,11.03-13.89,12.1-13.88,29.31-.76,42.68,9.54,9.72,20.84,15.65,32.41,20.79,19.46,8.65,39.13,16.63,58.58,25.3,16.71,7.45,32.34,17.4,46.17,30.97,45.98,45.12,37.97,118.38-7.76,154.79-24.13,19.21-51.38,27.5-79.73,30.65-59.93,6.65-117.57-4.73-172.72-33.49-2.14-1.11-4.14-2.58-6.77-4.23Zm63.2,14.2c43.73,9.04,64.55,9.79,98.92,2.67,24.44-5.06,47.61-14.48,66.1-35.25,17.75-19.95,26.01-44.28,20.83-73.49-4.55-25.71-19.5-41.44-37.82-53.58-3.89-2.58-7.97-4.76-11.96-7.13,5.43,5.64,11.53,9.82,17.19,14.73,25.68,22.29,32.8,59.49,17.6,92.64-10.21,22.26-26.72,36.06-46.02,45.07-35.04,16.35-71.7,18.57-108.79,15.98-5.36-.37-10.7-1.08-16.05-1.63Z"/>
  <path class="cls-1" d="m459,71.49c-.57,10.8-.73,21.89-1.82,32.92-3.07,31.15-10.35,61.1-25.78,88.01-23.22,40.48-55.68,61.77-95.75,65.69-23.07,2.26-45.55-.73-68.94-8.53,9.37-10.9,17.78-21.48,26.9-31.13,22.32-23.62,48.82-38.79,75.19-54.31,14.17-8.34,27.78-18.12,42.08-27.54-1.23-1.27-1.54-1.78-1.69-1.71-20.25,8.57-40.51,17.15-60.74,25.81-37,15.83-69.5,39.95-95.71,75.7-.2.28-.65.31-1.53.71,6.14-46.1,23.43-83.92,58.6-109.45,22.1-16.05,46.64-21.28,71.09-27.13,15.93-3.81,31.98-7.32,47.61-12.79,10.2-3.57,19.74-10.39,30.48-16.24Z"/>
</svg>