<?xml version="1.0" encoding="UTF-8"?>
<svg id="Layer_1" data-name="Layer 1" xmlns="http://www.w3.org/2000/svg" width="1270.69" height="474.75" viewBox="0 0 1270.69 474.75">
  <defs>
    <style>
      .cls-1 {
        fill: #446721;
      }
    </style>
  </defs>
  <path class="cls-1" d="m934.54,240.17c8.67-6.23,16.32-13.33,23.74-20.7,14.07-13.97,27.88-28.24,44.3-39.55,9.15-6.3,18.78-11.44,30.49-10.81,7.41.39,14.15,2.12,17.22,9.6,3.24,7.88,2.31,15.7-2.46,22.87-1.8,2.71-4.1,2.86-6.06.18-2.57-3.5-5.39-3.1-8.7-1.22-20.92,11.83-40.78,25.26-60.02,39.62-2.63,1.96-3.35,4.14-2.38,7.35,10.13,33.31,25.28,63.83,50.56,88.35,15.14,14.69,32.87,24.93,54.49,26.92,2.33.21,4.63.47,6.97.12,2.02-.3,4.2-.64,5.14,1.76.92,2.35-.9,3.79-2.45,4.98-4.92,3.78-10.81,5.16-16.74,6-44.3,6.28-82.33-7-114.13-37.89-15.13-14.7-24.12-33.3-29.7-55.04-3.52,10.5-5.53,19.96-6.79,29.6-1.32,10.08-2.6,20.16-1.86,30.36.18,2.53-1.12,3.74-3.29,4.23-13.77,3.17-27.62,4.82-41.43.52-8.1-2.52-13.52-11.14-14.03-20.61-.68-12.49,2.05-24.49,4.75-36.52,3.39-15.12,7.79-29.97,12.43-44.75.44-1.39,1.24-2.72.74-4.45-5.6,1.37-11.05,2.7-16.49,4.02-2.66.65-3.5,2.6-4.06,5.07-2.99,13.17-6.47,26.22-12.57,38.36-13.8,27.46-33.66,48.88-62.93,59.8-17.53,6.54-35.92,7.61-54.04,2.27-19.85-5.85-34.19-18.27-41.09-38.25-1.39-4.02-2.45-4.23-5.33-1.13-13.15,14.17-27.83,26.41-45.92,33.82-23.94,9.8-48.43,13.16-73.57,4.76-10.98-3.67-19.55-10.69-25.69-20.43-2.07-3.28-3.21-3.16-5.82-.62-14.78,14.43-32,23.89-53.12,24.54-19.1.59-31.66-3.52-40.08-19.38-4.23-7.97-4.64-16.93-4.91-25.79-.05-1.79,0-3.59,0-5.86-4.83,6.02-9.16,11.87-13.95,17.3-11.13,12.61-23.88,23.22-39.32,30.25-10.44,4.75-21.31,6.21-32.66,4.15-17.33-3.15-27.5-13.87-32.31-30.28-4.71-16.08-2.91-32.09,1.61-47.78,11.55-40.12,33.89-72.59,69.87-94.55,20.34-12.42,42.44-18.27,66.44-13.18,6.72,1.42,13.09,3.83,18.67,8.02,1.39,1.05,3.02,2.96,4.52.4,6.55-11.16,17.18-12.19,28.37-11.31,9.52.74,18.68,3.02,27.17,7.74,3.96,2.2,4.47,4.21,2.29,8.28-17.98,33.64-31.67,68.98-40.66,106.05-1.94,8-3.84,16.27-1.94,24.69,2.02,8.96,6.8,12.14,15.58,9.87,7.15-1.85,12.89-6.08,17.6-11.73,1.39-1.67,1.57-3.62,1.31-5.66-4.45-35.82,7.24-66.63,29.56-93.96,16.71-20.46,36.96-36.05,63-42.79,17.44-4.51,35-4.9,52.09,1.5,11.23,4.21,19.62,11.76,20.95,24.46,1.51,14.52-2.71,27.09-14.99,35.97-6.98,5.05-14.39,4.63-21.63.48-5.19-2.98-5.48-5.2-1.94-9.81,4.93-6.41,8.66-13.39,10.32-21.41,1.89-9.12-3.36-15.05-12.63-14.06-6.7.71-12.33,3.89-17.6,7.8-10.38,7.71-17.79,17.98-24.17,28.97-12.29,21.18-20.87,43.53-20.33,68.55.18,8.44,2.83,16.05,7.73,22.83,8.27,11.44,19.96,12.9,32.66,10.57,15.28-2.81,26.72-12.28,37.66-22.45,5.63-5.23,10.23-11.39,15.21-17.22,2.48-2.91,2.39-6.5,3.13-9.85,10.46-46.88,36.47-81.57,80.53-101.69,18.58-8.48,38.29-9.8,58.2-5.68,20.78,4.3,35.36,21.19,37.93,43.17.37,3.14,1.06,6.3.93,9.43-.22,5.11,2.86,6.03,6.69,5.58,4.78-.56,9.51-1.43,14.1-3.14,3.15-1.18,4.67-3.14,5.69-6.27,14.27-43.64,33.29-84.97,60.35-122.28,14.6-20.13,31.55-37.9,53.46-50.31,14.28-8.09,29.37-13.53,46.08-12.67,8.46.44,16.75,2.32,22.9,8.56,8.52,8.65,8.08,19.27,4.88,29.93-4.57,15.2-13.07,28.43-22.05,41.27-22.23,31.74-49.57,58.76-78.63,84.17-8.78,7.67-17.42,15.52-25.8,23.63-6.27,6.06-10.66,13.4-12.02,22.33Zm-172.52,86.03c5.79-.57,12.2-1.94,17.77-6.1,6.62-4.95,11.89-11.12,16.59-17.83,12.1-17.25,17.88-37.01,22.76-57.14.54-2.22-.62-3.38-1.98-4.69-5.47-5.24-7.94-11.62-7.82-19.25.15-9.42,3.64-17.83,7.07-26.33,2.25-5.56.23-8.67-5.73-9.03-2.16-.13-4.28.16-6.42.68-8.01,1.96-14.7,6.23-20.48,11.89-21.28,20.86-32.76,46.97-39.8,75.34-2.78,11.19-4.17,22.55-1.92,34.1,2.25,11.54,9.27,18.44,19.95,18.35Zm-387.82-27.62c0,2.33-.12,4.67.05,6.98.11,1.47.59,2.94,1.01,4.37,1.76,5.89,5.56,7.98,11.49,6.28,4.07-1.16,7.61-3.35,10.84-6.02,16.83-13.95,29.94-30.98,38.6-50.89,8.01-18.45,14.49-37.57,21.46-56.46,3.26-8.85.34-12.76-9.12-13.04-14.32-.43-24.51,7.63-33.71,17.02-12.73,12.99-22.07,28.31-29.01,45.09-6.19,14.98-11.1,30.3-11.6,46.68Zm584.24-115.93c3.26-2.54,5.59-4.13,7.65-6.02,28.55-26.04,53.79-54.92,74.67-87.49,4.39-6.85,8.69-13.83,10.85-21.82.78-2.88,2.08-6.15-.56-8.44-2.72-2.36-6.06-1.03-8.98.22-8.63,3.67-15.48,9.75-21.36,16.86-22.87,27.61-40.68,58.38-56.22,90.56-2.3,4.76-4.62,9.53-6.05,16.14Z"/>
  <path class="cls-1" d="m1016.23,438.42c-32.01-.44-60.81-1.23-89.52-3.73-36.3-3.15-72.44-7.72-108.57-12.54-32.81-4.37-65.66-8.49-98.63-11.58-29.35-2.75-58.74-4.3-88.21-5.21-35.84-1.11-71.58-.11-107.34,2.05-28.24,1.7-56.44,3.96-84.48,7.61-24.91,3.24-49.69,7.43-74.37,12.22-49.41,9.58-97.22,24.11-142.98,45.22-2.2,1.02-5.66,3.85-7.04,1.2-1.63-3.15,2.92-4.12,5-5.58,32.89-22.94,69.61-37.7,107.54-49.66,39.74-12.53,80.27-21.96,121.38-28.7,26.27-4.3,52.71-7.26,79.23-9.67,58.62-5.32,117.36-6.65,176.16-5.62,21.62.38,43.22,1.98,64.81,3.47,20.76,1.43,41.47,3.4,62.16,5.47,23.83,2.39,47.61,5.32,71.45,7.66,27.32,2.69,54.57,6.04,81.91,8.5,33.52,3.02,67.06,5.65,100.72,4.54,41.41-1.37,82.32-6.21,121.52-20.78,12.08-4.49,23.42-10.4,33.88-17.97,1.42-1.03,3.2-3.55,4.97-1.44,1.47,1.74-.53,3.68-1.75,5.23-15.09,19.15-34.25,32.9-56.53,42.45-26.84,11.5-55.01,17.73-83.89,21.43-30.11,3.86-60.38,4.51-87.45,5.43Z"/>
  <path class="cls-1" d="m1139.93,301.1c-9.51,12.54-19.27,24.5-31.71,34.01-8.47,6.46-17.59,11.34-28.32,12.82-25.33,3.5-45.7-11.24-50.45-36.51-4.35-23.15,1.05-44.77,11.17-65.27,15.72-31.82,38.83-56.79,71.11-72.43,16.94-8.21,34.61-10.42,52.85-4.37,5.47,1.81,10.22,4.8,14.44,8.69,1.11,1.02,2.3,2.54,3.51.32,9.14-16.71,23.9-14.12,38.58-11.04,6.2,1.3,11.96,4.07,17.11,7.94,1.74,1.31,2.89,2.34,1.44,4.85-16.82,29.06-26.89,60.79-36.35,92.75-2.32,7.84-3.69,15.85-4.73,23.96-.74,5.75-.28,11.3,1.18,16.81,1.99,7.55,7.61,10.85,15.21,8.84,7.91-2.09,14.58-6.43,20.45-12.04,9.74-9.33,17.23-20.26,23-32.42,1.46-3.07,2.57-6.98,7.52-5.05,4.01,1.57,5.87,5.63,4.11,10.32-4.59,12.26-11.14,23.46-19.27,33.69-12.47,15.71-27.28,28.28-47.06,33.81-11.6,3.25-23.25,3.97-34.93.18-12.53-4.06-21.29-11.93-25.45-24.65-2.66-8.16-3.21-16.57-3.4-25.2Zm-49.83-6.64c0,2.33-.18,4.67.03,6.98.94,10.18,7.03,13.28,15.77,8.06,1.99-1.19,3.98-2.46,5.78-3.92,14.96-12.14,26.75-26.96,35.09-44.21,9.2-19.03,16.24-38.99,23.34-58.88,2.63-7.35-.48-11.84-8.36-12.62-6.13-.6-11.84.74-17.28,3.72-12.47,6.83-21.65,16.99-29.19,28.77-14.1,22.03-23.46,45.77-25.19,72.11Z"/>
  <path class="cls-1" d="m0,407.94c3.26-9.14,6.31-18.02,9.58-26.77,4.8-12.84,9.15-25.98,14.81-38.27,8-17.39,18.27-22.63,34.42-17.14,11.97,4.07,23.51,9.99,35.07,15.6,18.96,9.19,37.95,18.31,58.45,21.31,14.67,2.15,29.46,3.13,42.96-6.3,10.13-7.07,12.43-21.06,5.34-32.12-1.81-2.83-3.98-5.8-6.55-7.4-10.59-6.59-21.17-13.36-32.19-18.82-19.63-9.72-39.9-17.67-59.28-28-19.01-10.13-35.4-24.8-47.55-45.65-19.15-32.86-15.42-76.55,1.34-106.16,10.89-19.24,25.85-32.5,43.51-41.97,31.97-17.16,73.78-21.98,107.07-20.93-4.79,3.15-9.34,5.89-13.68,9.05-18.85,13.72-31.22,33.46-37.79,58.39-1.01,3.82-2.64,5.32-5.96,6.71-6.61,2.77-13.35,6.15-18.95,11.03-13.89,12.1-13.88,29.31-.76,42.68,9.54,9.72,20.84,15.65,32.41,20.79,19.46,8.65,39.13,16.63,58.58,25.3,16.71,7.45,32.34,17.4,46.17,30.97,45.98,45.12,37.97,118.38-7.76,154.79-24.13,19.21-51.38,27.5-79.73,30.65-59.93,6.65-117.57-4.73-172.72-33.49-2.14-1.11-4.14-2.58-6.77-4.23Zm63.2,14.2c43.73,9.04,64.55,9.79,98.92,2.67,24.44-5.06,47.61-14.48,66.1-35.25,17.75-19.95,26.01-44.28,20.83-73.49-4.55-25.71-19.5-41.44-37.82-53.58-3.89-2.58-7.97-4.76-11.96-7.13,5.43,5.64,11.53,9.82,17.19,14.73,25.68,22.29,32.8,59.49,17.6,92.64-10.21,22.26-26.72,36.06-46.02,45.07-35.04,16.35-71.7,18.57-108.79,15.98-5.36-.37-10.7-1.08-16.05-1.63Z"/>
  <path class="cls-1" d="m362.73,0c-.57,10.8-.73,21.89-1.82,32.92-3.07,31.15-10.35,61.1-25.78,88.01-23.22,40.48-55.68,61.77-95.75,65.69-23.07,2.26-45.55-.73-68.94-8.53,9.37-10.9,17.78-21.48,26.9-31.13,22.32-23.62,48.82-38.79,75.19-54.31,14.17-8.34,27.78-18.12,42.08-27.54-1.23-1.27-1.54-1.78-1.69-1.71-20.25,8.57-40.51,17.15-60.74,25.81-37,15.83-69.5,39.95-95.71,75.7-.2.28-.65.31-1.53.71,6.14-46.1,23.43-83.92,58.6-109.45,22.1-16.05,46.64-21.28,71.09-27.13,15.93-3.81,31.98-7.32,47.61-12.79,10.2-3.57,19.74-10.39,30.48-16.24Z"/>
</svg>